<svg version="1.1" id="Layer_1" xmlns:x="ns_extend;" xmlns:i="ns_ai;" xmlns:graph="ns_graphs;" xmlns="http://www.w3.org/2000/svg" xmlns:xlink="http://www.w3.org/1999/xlink" x="0px" y="0px" viewBox="0 0 407 150" style="enable-background:new 0 0 407 150;" xml:space="preserve">
 <style type="text/css">
  .st0{fill:#CA1D20;}
	.st1{fill:#FFFFFF;}
 </style>
 <metadata>
  <sfw xmlns="ns_sfw;">
   <slices>
   </slices>
   <sliceSourceBounds bottomLeftOrigin="true" height="150" width="405.9" x="0.5" y="0">
   </sliceSourceBounds>
  </sfw>
 </metadata>
 <g>
  <g id="Logo">
   <path class="st0" d="M401.1,30.5C400.4,30.2,332.9,0,203.7,0S6.6,30.3,5.9,30.6c-3.6,2-5.7,5.9-5.3,10.1l16.9,102.7
			c0.8,3.7,4,6.5,7.9,6.6h356.2c3.8-0.2,7-2.9,7.8-6.6l16.9-102.7C406.8,36.5,404.7,32.5,401.1,30.5z">
   </path>
  </g>
  <polygon class="st1" points="130.2,36.4 130.2,122.5 117.6,122.5 117.6,85.9 105.1,85.9 105.1,122.5 92.7,122.5 92.7,41.2 
		105.1,39.3 105.1,74.5 117.6,74.5 117.6,37.7 130.2,36.4 	">
  </polygon>
  <polygon class="st1" points="171.3,122.5 171.3,111.2 150.2,111.2 150.2,85.9 167.9,85.9 167.9,74.5 150.2,74.5 150.2,45.7 
		171.2,44.4 171.2,33 137.7,35.4 137.7,122.5 171.3,122.5 	">
  </polygon>
  <polygon class="st1" points="252.5,98 262,67.4 262,122.5 274.5,122.5 274.5,35.2 262.8,34.4 250.8,68.5 239.8,33.4 227.7,32.7 
		227.7,122.5 240,122.5 240,67.4 249.2,98 252.5,98 	">
  </polygon>
  <path class="st1" d="M322.4,102.3c0.2,11.2-8.7,20.5-19.9,20.7c-11.2,0.2-20.5-8.6-20.7-19.8c0-0.3,0-0.6,0-0.9V58.2
		c-0.2-11.2,8.7-20.5,19.9-20.7c11.2-0.2,20.5,8.6,20.7,19.8c0,0.3,0,0.6,0,0.9V102.3z M302.1,111.3c4.3,0,7.7-3.6,7.7-7.8l0,0V56.9
		c0-4.2-3.4-7.7-7.7-7.7s-7.7,3.4-7.7,7.7v46.6C294.4,107.8,297.8,111.3,302.1,111.3L302.1,111.3L302.1,111.3z">
  </path>
  <polygon class="st1" points="72.5,122.5 72.5,56.4 86.5,53.6 86.5,42.2 45.9,50.1 45.9,61.5 60,58.7 60,122.5 72.5,122.5 	">
  </polygon>
  <path class="st1" d="M350,80.3c-9.4-10.4-10.4-13.4-10.4-18.4c0-3.1,0.6-5.1,1.7-6.2c1.1-0.8,2.5-1.2,3.8-1c1.4,0,2.7,0.6,3.7,1.5
		c1.3,1.3,2,3.1,2,5v6.4l10.5,0.6v-7.5c0-4.8-1-7.9-3.2-10.1c-3.4-3.2-7.9-5.1-12.5-5.3c-5.9-0.5-10.2,0.6-13.1,3.3
		s-4.4,7.3-4.4,13.8c0,10.4,5.3,16.9,12.3,24.2c10.9,11.2,10.9,13,10.9,19c0,3.2-0.6,5.2-1.9,6.4c-1.2,1.1-2.8,1.6-4.4,1.5
		c-1.3,0.1-2.6-0.4-3.5-1.4c-1.5-1.7-2.4-3.9-2.3-6.2v-6.8l-11.2-0.3v9.7c0,4.1,1.2,7.5,3.5,9.9c2.8,2.9,7.3,4.4,13.1,4.4
		c5.8,0,10-1.4,12.8-4.3c3.1-3.1,4.6-7.8,4.6-14.5C362.2,95.1,360.2,91.3,350,80.3L350,80.3z">
  </path>
  <path class="st1" d="M190.5,43.6v31.9c8.8,0,11.3-1.7,13.2-3.5c2.7-2.5,4.2-8.6,4.2-13.8c0-5.6-1.3-9.4-3.8-11.8
		c-2-1.9-4.8-2.8-8.4-2.8L190.5,43.6z M215.4,76.5c-1.3,2.2-3.2,4-5.4,5.3l10.5,40.7h-13l-8.3-37.3c-2.9,0.4-5.8,0.6-8.8,0.5v36.7
		H178V32.7l17.2-0.4c8.9,0,15.2,1.3,19.3,5.4c4.1,4.1,6,10.3,6,18.6C220.4,62,219,70.5,215.4,76.5L215.4,76.5z">
  </path>
  <path class="st1" d="M369.2,114.5h2.3c0.6-0.1,1.2,0,1.8,0.2c0.6,0.3,1,0.9,1,1.6c0,1-0.9,1.9-1.9,1.9l0,0c0.5,0.2,0.9,0.6,1.6,1.7
		l0.8,1.3h-1.3l-0.6-1.1c-0.8-1.5-1.2-1.8-2-1.8h-0.6v2.8h-1.1L369.2,114.5L369.2,114.5z M371.6,117.4c1.1,0,1.6-0.3,1.6-1
		c0-0.7-0.4-1-1.7-1h-1.2v2H371.6z M378.2,117.7c0,3.4-2.8,6.2-6.2,6.2c-3.4,0-6.2-2.8-6.2-6.2c0-3.4,2.8-6.2,6.2-6.2l0,0h0
		C375.4,111.5,378.2,114.3,378.2,117.7C378.2,117.7,378.2,117.7,378.2,117.7z M366.8,117.7c0,2.9,2.3,5.2,5.2,5.2
		c2.9,0,5.2-2.3,5.2-5.2c0-2.9-2.3-5.2-5.2-5.2C369.1,112.5,366.8,114.8,366.8,117.7C366.8,117.7,366.8,117.7,366.8,117.7
		L366.8,117.7z">
  </path>
 </g>
</svg>